G04 #@! TF.GenerationSoftware,KiCad,Pcbnew,6.0.5-a6ca702e91~116~ubuntu20.04.1*
G04 #@! TF.CreationDate,2022-06-20T08:25:11+02:00*
G04 #@! TF.ProjectId,traffic_lights_train,74726166-6669-4635-9f6c-69676874735f,1.0*
G04 #@! TF.SameCoordinates,Original*
G04 #@! TF.FileFunction,Copper,L1,Top*
G04 #@! TF.FilePolarity,Positive*
%FSLAX46Y46*%
G04 Gerber Fmt 4.6, Leading zero omitted, Abs format (unit mm)*
G04 Created by KiCad (PCBNEW 6.0.5-a6ca702e91~116~ubuntu20.04.1) date 2022-06-20 08:25:11*
%MOMM*%
%LPD*%
G01*
G04 APERTURE LIST*
G04 Aperture macros list*
%AMHorizOval*
0 Thick line with rounded ends*
0 $1 width*
0 $2 $3 position (X,Y) of the first rounded end (center of the circle)*
0 $4 $5 position (X,Y) of the second rounded end (center of the circle)*
0 Add line between two ends*
20,1,$1,$2,$3,$4,$5,0*
0 Add two circle primitives to create the rounded ends*
1,1,$1,$2,$3*
1,1,$1,$4,$5*%
G04 Aperture macros list end*
G04 #@! TA.AperFunction,ComponentPad*
%ADD10R,1.800000X1.800000*%
G04 #@! TD*
G04 #@! TA.AperFunction,ComponentPad*
%ADD11C,1.800000*%
G04 #@! TD*
G04 #@! TA.AperFunction,ComponentPad*
%ADD12R,1.700000X1.700000*%
G04 #@! TD*
G04 #@! TA.AperFunction,ComponentPad*
%ADD13O,1.700000X1.700000*%
G04 #@! TD*
G04 #@! TA.AperFunction,ComponentPad*
%ADD14C,1.600000*%
G04 #@! TD*
G04 #@! TA.AperFunction,ComponentPad*
%ADD15HorizOval,1.600000X0.000000X0.000000X0.000000X0.000000X0*%
G04 #@! TD*
G04 #@! TA.AperFunction,ComponentPad*
%ADD16HorizOval,1.600000X0.000000X0.000000X0.000000X0.000000X0*%
G04 #@! TD*
G04 #@! TA.AperFunction,ViaPad*
%ADD17C,3.500000*%
G04 #@! TD*
G04 #@! TA.AperFunction,Conductor*
%ADD18C,0.500000*%
G04 #@! TD*
G04 #@! TA.AperFunction,Conductor*
%ADD19C,0.250000*%
G04 #@! TD*
G04 APERTURE END LIST*
D10*
X108585000Y-59690000D03*
D11*
X106045000Y-59690000D03*
D10*
X112395000Y-59690000D03*
D11*
X114935000Y-59690000D03*
D12*
X114300000Y-98425000D03*
D13*
X111760000Y-98425000D03*
X109220000Y-98425000D03*
D14*
X109150000Y-50750000D03*
D15*
X105340000Y-57349114D03*
D14*
X115705000Y-57349557D03*
D16*
X111895000Y-50750443D03*
D17*
X118500000Y-94000000D03*
X102500000Y-94000000D03*
D18*
X106045000Y-58054114D02*
X105340000Y-57349114D01*
X106045000Y-59690000D02*
X106045000Y-58054114D01*
X114935000Y-59690000D02*
X114935000Y-58119557D01*
X114935000Y-58119557D02*
X115705000Y-57349557D01*
X110069999Y-95035001D02*
X110069999Y-51669999D01*
X109220000Y-95885000D02*
X109220000Y-98425000D01*
X110069999Y-51669999D02*
X109150000Y-50750000D01*
X109220000Y-95885000D02*
X110069999Y-95035001D01*
X111760000Y-98425000D02*
X110910000Y-97575000D01*
X110910000Y-51735443D02*
X111895000Y-50750443D01*
X110910000Y-97575000D02*
X110910000Y-51735443D01*
X114300000Y-94535000D02*
X114300000Y-98425000D01*
X111840000Y-92075000D02*
X111840000Y-62030000D01*
D19*
X111760000Y-92075000D02*
X111760000Y-62110000D01*
D18*
X111840000Y-62030000D02*
X112395000Y-61475000D01*
X112395000Y-61475000D02*
X112395000Y-59690000D01*
X114300000Y-94535000D02*
X111840000Y-92075000D01*
G04 #@! TA.AperFunction,Conductor*
G36*
X110625884Y-47169715D02*
G01*
X110884843Y-47201781D01*
X110900079Y-47204630D01*
X111153123Y-47268273D01*
X111167906Y-47272975D01*
X111411217Y-47367234D01*
X111425311Y-47373718D01*
X111655197Y-47497164D01*
X111668387Y-47505331D01*
X111881353Y-47656087D01*
X111893430Y-47665805D01*
X112086269Y-47841601D01*
X112097060Y-47852730D01*
X112266831Y-48050888D01*
X112276176Y-48063263D01*
X112404984Y-48257654D01*
X112409778Y-48267422D01*
X112410085Y-48267245D01*
X112416291Y-48277994D01*
X112420279Y-48289743D01*
X112428460Y-48299071D01*
X112428460Y-48299072D01*
X112428903Y-48299577D01*
X112443311Y-48319690D01*
X118595925Y-58984773D01*
X118606096Y-59007232D01*
X118610343Y-59019743D01*
X118618524Y-59029073D01*
X118624729Y-59039820D01*
X118624422Y-59039997D01*
X118630485Y-59049034D01*
X118734431Y-59257785D01*
X118740477Y-59272068D01*
X118815323Y-59484462D01*
X118827196Y-59518156D01*
X118831442Y-59533078D01*
X118887263Y-59787966D01*
X118889643Y-59803296D01*
X118913718Y-60063119D01*
X118914195Y-60078624D01*
X118906160Y-60339418D01*
X118904729Y-60354865D01*
X118864705Y-60612707D01*
X118861386Y-60627862D01*
X118789979Y-60878830D01*
X118784823Y-60893461D01*
X118683118Y-61133750D01*
X118676203Y-61147637D01*
X118545740Y-61373605D01*
X118537171Y-61386537D01*
X118379928Y-61594760D01*
X118369835Y-61606541D01*
X118194211Y-61787661D01*
X118188191Y-61793869D01*
X118176726Y-61804320D01*
X117973448Y-61967896D01*
X117960787Y-61976859D01*
X117738942Y-62114220D01*
X117725274Y-62121560D01*
X117488227Y-62230618D01*
X117473762Y-62236222D01*
X117225110Y-62315324D01*
X117210073Y-62319106D01*
X116953574Y-62367054D01*
X116938194Y-62368958D01*
X116705445Y-62383314D01*
X116694581Y-62382581D01*
X116694581Y-62382935D01*
X116682171Y-62382935D01*
X116670000Y-62380514D01*
X116657103Y-62383079D01*
X116632524Y-62385500D01*
X113787476Y-62385500D01*
X113762897Y-62383079D01*
X113750000Y-62380514D01*
X113739688Y-62382565D01*
X113735459Y-62382935D01*
X113734448Y-62382935D01*
X113732850Y-62383163D01*
X113574904Y-62396982D01*
X113569591Y-62398406D01*
X113569589Y-62398406D01*
X113522900Y-62410916D01*
X113405128Y-62442473D01*
X113245832Y-62516755D01*
X113241330Y-62519907D01*
X113241327Y-62519909D01*
X113241326Y-62519910D01*
X113101853Y-62617569D01*
X112977569Y-62741853D01*
X112974416Y-62746356D01*
X112880481Y-62880511D01*
X112876755Y-62885832D01*
X112802473Y-63045128D01*
X112756982Y-63214904D01*
X112743164Y-63372845D01*
X112742935Y-63374448D01*
X112742935Y-63375459D01*
X112742565Y-63379688D01*
X112740514Y-63390000D01*
X112742935Y-63402170D01*
X112743079Y-63402894D01*
X112745500Y-63427476D01*
X112745500Y-90712524D01*
X112743079Y-90737103D01*
X112740514Y-90750000D01*
X112742565Y-90760312D01*
X112742935Y-90764541D01*
X112742935Y-90765552D01*
X112743163Y-90767150D01*
X112756982Y-90925096D01*
X112802473Y-91094872D01*
X112804795Y-91099852D01*
X112804796Y-91099854D01*
X112872713Y-91245500D01*
X112876755Y-91254169D01*
X112977569Y-91398147D01*
X113101853Y-91522431D01*
X113106356Y-91525584D01*
X113241327Y-91620091D01*
X113241330Y-91620093D01*
X113245832Y-91623245D01*
X113405128Y-91697527D01*
X113522900Y-91729084D01*
X113569589Y-91741594D01*
X113569591Y-91741594D01*
X113574904Y-91743018D01*
X113732850Y-91756837D01*
X113734448Y-91757065D01*
X113735459Y-91757065D01*
X113739688Y-91757435D01*
X113750000Y-91759486D01*
X113762897Y-91756921D01*
X113787476Y-91754500D01*
X118240540Y-91754500D01*
X118308661Y-91774502D01*
X118355154Y-91828158D01*
X118365258Y-91898432D01*
X118335764Y-91963012D01*
X118276038Y-92001396D01*
X118256334Y-92005506D01*
X118252568Y-92005982D01*
X118248128Y-92006226D01*
X118243768Y-92007093D01*
X118243762Y-92007094D01*
X118107296Y-92034239D01*
X117969715Y-92061606D01*
X117965505Y-92063084D01*
X117965503Y-92063085D01*
X117914996Y-92080822D01*
X117701884Y-92155662D01*
X117697933Y-92157715D01*
X117697927Y-92157717D01*
X117453926Y-92284465D01*
X117449976Y-92286517D01*
X117446361Y-92289100D01*
X117446355Y-92289104D01*
X117404214Y-92319219D01*
X117219020Y-92451561D01*
X117013623Y-92647501D01*
X117010867Y-92650997D01*
X117010866Y-92650998D01*
X116976291Y-92694856D01*
X116837882Y-92870426D01*
X116835645Y-92874278D01*
X116697540Y-93112042D01*
X116697537Y-93112048D01*
X116695306Y-93115889D01*
X116693636Y-93120012D01*
X116590411Y-93374861D01*
X116590408Y-93374869D01*
X116588738Y-93378993D01*
X116520305Y-93654488D01*
X116491372Y-93936876D01*
X116493852Y-94000000D01*
X116498935Y-94129367D01*
X116502516Y-94220524D01*
X116553516Y-94499772D01*
X116643353Y-94769048D01*
X116679786Y-94841961D01*
X116728954Y-94940361D01*
X116770236Y-95022980D01*
X116931631Y-95256500D01*
X117124320Y-95464950D01*
X117127774Y-95467762D01*
X117341001Y-95641356D01*
X117341005Y-95641359D01*
X117344458Y-95644170D01*
X117587652Y-95790585D01*
X117591747Y-95792319D01*
X117591749Y-95792320D01*
X117776140Y-95870399D01*
X117849049Y-95901272D01*
X117853342Y-95902410D01*
X117853347Y-95902412D01*
X117996898Y-95940473D01*
X118123435Y-95974024D01*
X118405334Y-96007389D01*
X118689122Y-96000701D01*
X118693517Y-95999969D01*
X118693522Y-95999969D01*
X118964734Y-95954827D01*
X118964738Y-95954826D01*
X118969136Y-95954094D01*
X119233776Y-95870399D01*
X119235544Y-95869840D01*
X119235546Y-95869839D01*
X119239790Y-95868497D01*
X119243801Y-95866571D01*
X119243806Y-95866569D01*
X119491665Y-95747549D01*
X119491666Y-95747548D01*
X119495684Y-95745619D01*
X119651724Y-95641356D01*
X119728002Y-95590389D01*
X119728006Y-95590386D01*
X119731710Y-95587911D01*
X119735027Y-95584940D01*
X119735031Y-95584937D01*
X119939845Y-95401490D01*
X119943161Y-95398520D01*
X120125817Y-95181225D01*
X120128174Y-95177446D01*
X120273669Y-94944152D01*
X120273671Y-94944149D01*
X120276033Y-94940361D01*
X120390813Y-94680734D01*
X120467866Y-94407525D01*
X120494621Y-94208328D01*
X120523514Y-94143476D01*
X120582881Y-94104540D01*
X120653874Y-94103881D01*
X120713954Y-94141708D01*
X120744046Y-94206012D01*
X120745500Y-94225101D01*
X120745500Y-97462524D01*
X120743079Y-97487103D01*
X120740514Y-97500000D01*
X120742935Y-97512172D01*
X120742935Y-97524580D01*
X120742615Y-97524580D01*
X120743355Y-97535456D01*
X120729588Y-97763057D01*
X120727754Y-97778161D01*
X120681624Y-98029885D01*
X120677983Y-98044658D01*
X120631329Y-98194378D01*
X120601846Y-98288991D01*
X120596451Y-98303214D01*
X120515513Y-98483053D01*
X120491421Y-98536584D01*
X120484350Y-98550057D01*
X120351951Y-98769069D01*
X120343308Y-98781590D01*
X120328484Y-98800512D01*
X120205265Y-98957791D01*
X120185481Y-98983043D01*
X120175391Y-98994432D01*
X119994432Y-99175391D01*
X119983043Y-99185481D01*
X119781590Y-99343308D01*
X119769069Y-99351951D01*
X119605565Y-99450794D01*
X119555240Y-99481217D01*
X119550057Y-99484350D01*
X119536586Y-99491420D01*
X119303214Y-99596451D01*
X119288996Y-99601844D01*
X119112162Y-99656948D01*
X119044658Y-99677983D01*
X119029885Y-99681624D01*
X118778161Y-99727754D01*
X118763057Y-99729588D01*
X118535456Y-99743355D01*
X118524580Y-99742615D01*
X118524580Y-99742935D01*
X118512172Y-99742935D01*
X118500000Y-99740514D01*
X118487103Y-99743079D01*
X118462524Y-99745500D01*
X115684156Y-99745500D01*
X115616035Y-99725498D01*
X115569542Y-99671842D01*
X115559438Y-99601568D01*
X115583329Y-99543937D01*
X115594784Y-99528652D01*
X115603324Y-99513054D01*
X115648478Y-99392606D01*
X115652105Y-99377351D01*
X115657631Y-99326486D01*
X115658000Y-99319672D01*
X115658000Y-98697115D01*
X115653525Y-98681876D01*
X115652135Y-98680671D01*
X115644452Y-98679000D01*
X114172000Y-98679000D01*
X114103879Y-98658998D01*
X114057386Y-98605342D01*
X114046000Y-98553000D01*
X114046000Y-98152885D01*
X114554000Y-98152885D01*
X114558475Y-98168124D01*
X114559865Y-98169329D01*
X114567548Y-98171000D01*
X115639884Y-98171000D01*
X115655123Y-98166525D01*
X115656328Y-98165135D01*
X115657999Y-98157452D01*
X115657999Y-97530331D01*
X115657629Y-97523510D01*
X115652105Y-97472648D01*
X115648479Y-97457396D01*
X115603324Y-97336946D01*
X115594786Y-97321351D01*
X115518285Y-97219276D01*
X115505724Y-97206715D01*
X115403649Y-97130214D01*
X115388054Y-97121676D01*
X115267606Y-97076522D01*
X115252351Y-97072895D01*
X115201486Y-97067369D01*
X115194672Y-97067000D01*
X114572115Y-97067000D01*
X114556876Y-97071475D01*
X114555671Y-97072865D01*
X114554000Y-97080548D01*
X114554000Y-98152885D01*
X114046000Y-98152885D01*
X114046000Y-97085116D01*
X114041525Y-97069877D01*
X114040135Y-97068672D01*
X114032452Y-97067001D01*
X113405331Y-97067001D01*
X113398510Y-97067371D01*
X113347648Y-97072895D01*
X113332396Y-97076521D01*
X113211946Y-97121676D01*
X113196351Y-97130214D01*
X113094276Y-97206715D01*
X113081715Y-97219276D01*
X113005214Y-97321351D01*
X112996676Y-97336946D01*
X112951522Y-97457394D01*
X112947895Y-97472649D01*
X112942369Y-97523514D01*
X112942000Y-97530328D01*
X112942000Y-97785160D01*
X112921998Y-97853281D01*
X112868342Y-97899774D01*
X112798068Y-97909878D01*
X112733488Y-97880384D01*
X112708567Y-97850994D01*
X112708331Y-97850608D01*
X112705776Y-97845428D01*
X112694919Y-97830888D01*
X112645999Y-97765377D01*
X112584320Y-97682779D01*
X112485341Y-97591283D01*
X112439503Y-97548911D01*
X112435258Y-97544987D01*
X112430375Y-97541906D01*
X112430371Y-97541903D01*
X112284728Y-97450010D01*
X112263581Y-97436667D01*
X112075039Y-97361446D01*
X112069379Y-97360320D01*
X112069375Y-97360319D01*
X111881613Y-97322971D01*
X111881610Y-97322971D01*
X111875946Y-97321844D01*
X111870171Y-97321768D01*
X111870167Y-97321768D01*
X111768793Y-97320441D01*
X111672971Y-97319187D01*
X111667274Y-97320166D01*
X111667273Y-97320166D01*
X111561838Y-97338283D01*
X111491314Y-97330106D01*
X111436406Y-97285099D01*
X111414500Y-97214103D01*
X111414500Y-61224000D01*
X111434502Y-61155879D01*
X111488158Y-61109386D01*
X111540500Y-61098000D01*
X112122885Y-61098000D01*
X112138124Y-61093525D01*
X112139329Y-61092135D01*
X112141000Y-61084452D01*
X112141000Y-61079884D01*
X112649000Y-61079884D01*
X112653475Y-61095123D01*
X112654865Y-61096328D01*
X112662548Y-61097999D01*
X113339669Y-61097999D01*
X113346490Y-61097629D01*
X113397352Y-61092105D01*
X113412604Y-61088479D01*
X113533054Y-61043324D01*
X113548649Y-61034786D01*
X113650724Y-60958285D01*
X113663285Y-60945724D01*
X113739786Y-60843649D01*
X113748324Y-60828054D01*
X113793478Y-60707606D01*
X113797105Y-60692351D01*
X113802631Y-60641486D01*
X113803000Y-60634672D01*
X113803000Y-60485365D01*
X113823002Y-60417244D01*
X113876658Y-60370751D01*
X113946932Y-60360647D01*
X114011512Y-60390141D01*
X114031895Y-60412642D01*
X114053350Y-60443000D01*
X114205337Y-60591059D01*
X114210133Y-60594264D01*
X114210136Y-60594266D01*
X114352186Y-60689180D01*
X114381760Y-60708941D01*
X114387063Y-60711219D01*
X114387066Y-60711221D01*
X114468908Y-60746383D01*
X114576711Y-60792699D01*
X114652750Y-60809905D01*
X114778025Y-60838252D01*
X114778030Y-60838253D01*
X114783662Y-60839527D01*
X114789433Y-60839754D01*
X114789435Y-60839754D01*
X114854911Y-60842326D01*
X114995681Y-60847857D01*
X115100674Y-60832634D01*
X115199953Y-60818239D01*
X115199958Y-60818238D01*
X115205667Y-60817410D01*
X115211131Y-60815555D01*
X115211136Y-60815554D01*
X115304240Y-60783949D01*
X115406589Y-60749207D01*
X115480873Y-60707606D01*
X115586670Y-60648357D01*
X115586674Y-60648354D01*
X115591717Y-60645530D01*
X115754852Y-60509852D01*
X115890530Y-60346717D01*
X115893354Y-60341674D01*
X115893357Y-60341670D01*
X115991383Y-60166632D01*
X115991384Y-60166630D01*
X115994207Y-60161589D01*
X116062410Y-59960667D01*
X116074545Y-59876979D01*
X116092324Y-59754355D01*
X116092857Y-59750681D01*
X116094446Y-59690000D01*
X116075031Y-59478708D01*
X116017436Y-59274492D01*
X115923590Y-59084191D01*
X115875465Y-59019743D01*
X115800089Y-58918803D01*
X115800088Y-58918802D01*
X115796636Y-58914179D01*
X115792400Y-58910263D01*
X115645066Y-58774069D01*
X115645063Y-58774067D01*
X115640826Y-58770150D01*
X115498264Y-58680200D01*
X115451326Y-58626934D01*
X115439500Y-58573639D01*
X115439500Y-58521832D01*
X115459502Y-58453711D01*
X115513158Y-58407218D01*
X115580419Y-58396718D01*
X115648600Y-58404848D01*
X115682809Y-58408927D01*
X115688944Y-58408455D01*
X115688946Y-58408455D01*
X115882856Y-58393534D01*
X115882860Y-58393533D01*
X115888998Y-58393061D01*
X116088178Y-58337449D01*
X116093682Y-58334669D01*
X116093684Y-58334668D01*
X116267262Y-58246988D01*
X116267264Y-58246987D01*
X116272763Y-58244209D01*
X116435722Y-58116891D01*
X116439748Y-58112227D01*
X116439751Y-58112224D01*
X116566819Y-57965014D01*
X116566820Y-57965012D01*
X116570848Y-57960346D01*
X116625214Y-57864645D01*
X116669950Y-57785897D01*
X116669952Y-57785893D01*
X116672995Y-57780536D01*
X116717189Y-57647684D01*
X116736325Y-57590158D01*
X116736326Y-57590155D01*
X116738270Y-57584310D01*
X116764189Y-57379143D01*
X116764602Y-57349557D01*
X116744422Y-57143746D01*
X116684651Y-56945774D01*
X116587565Y-56763182D01*
X116583674Y-56758412D01*
X116583672Y-56758408D01*
X116460758Y-56607700D01*
X116460755Y-56607697D01*
X116456863Y-56602925D01*
X116452114Y-56598996D01*
X116302271Y-56475035D01*
X116302266Y-56475032D01*
X116297522Y-56471107D01*
X116292103Y-56468177D01*
X116292100Y-56468175D01*
X116121032Y-56375679D01*
X116121027Y-56375677D01*
X116115612Y-56372749D01*
X115918063Y-56311597D01*
X115911938Y-56310953D01*
X115911937Y-56310953D01*
X115718526Y-56290625D01*
X115718524Y-56290625D01*
X115712397Y-56289981D01*
X115586229Y-56301463D01*
X115512591Y-56308164D01*
X115512590Y-56308164D01*
X115506450Y-56308723D01*
X115308066Y-56367111D01*
X115302601Y-56369968D01*
X115130261Y-56460065D01*
X115130257Y-56460068D01*
X115124801Y-56462920D01*
X114963635Y-56592500D01*
X114830708Y-56750917D01*
X114731082Y-56932135D01*
X114668553Y-57129253D01*
X114645501Y-57334763D01*
X114662806Y-57540835D01*
X114664506Y-57546763D01*
X114672977Y-57576305D01*
X114672528Y-57647300D01*
X114640954Y-57700132D01*
X114628206Y-57712880D01*
X114618766Y-57720422D01*
X114619089Y-57720802D01*
X114612253Y-57726620D01*
X114604661Y-57731410D01*
X114598719Y-57738138D01*
X114569329Y-57771416D01*
X114563983Y-57777103D01*
X114552649Y-57788437D01*
X114549964Y-57792020D01*
X114549962Y-57792022D01*
X114546447Y-57796712D01*
X114540062Y-57804555D01*
X114508999Y-57839727D01*
X114505186Y-57847849D01*
X114503346Y-57850650D01*
X114494937Y-57864645D01*
X114493315Y-57867608D01*
X114487930Y-57874793D01*
X114484777Y-57883203D01*
X114484776Y-57883205D01*
X114471454Y-57918739D01*
X114467530Y-57928052D01*
X114447583Y-57970539D01*
X114446201Y-57979413D01*
X114445215Y-57982640D01*
X114441075Y-57998423D01*
X114440354Y-58001701D01*
X114437202Y-58010109D01*
X114436537Y-58019060D01*
X114433724Y-58056914D01*
X114432570Y-58066961D01*
X114430500Y-58080254D01*
X114430500Y-58095619D01*
X114430154Y-58104956D01*
X114426493Y-58154224D01*
X114428366Y-58162999D01*
X114428959Y-58171695D01*
X114430500Y-58186295D01*
X114430500Y-58575031D01*
X114410498Y-58643152D01*
X114368923Y-58683316D01*
X114253495Y-58751988D01*
X114249155Y-58755794D01*
X114249151Y-58755797D01*
X114098309Y-58888083D01*
X114093968Y-58891890D01*
X114090393Y-58896425D01*
X114090392Y-58896426D01*
X114027949Y-58975634D01*
X113970067Y-59016747D01*
X113899147Y-59020041D01*
X113837705Y-58984469D01*
X113805248Y-58921326D01*
X113802999Y-58897628D01*
X113802999Y-58745331D01*
X113802629Y-58738510D01*
X113797105Y-58687648D01*
X113793479Y-58672396D01*
X113748324Y-58551946D01*
X113739786Y-58536351D01*
X113663285Y-58434276D01*
X113650724Y-58421715D01*
X113548649Y-58345214D01*
X113533054Y-58336676D01*
X113412606Y-58291522D01*
X113397351Y-58287895D01*
X113346486Y-58282369D01*
X113339672Y-58282000D01*
X112667115Y-58282000D01*
X112651876Y-58286475D01*
X112650671Y-58287865D01*
X112649000Y-58295548D01*
X112649000Y-61079884D01*
X112141000Y-61079884D01*
X112141000Y-58300116D01*
X112136525Y-58284877D01*
X112135135Y-58283672D01*
X112127452Y-58282001D01*
X111540500Y-58282001D01*
X111472379Y-58261999D01*
X111425886Y-58208343D01*
X111414500Y-58156001D01*
X111414500Y-51996604D01*
X111434502Y-51928483D01*
X111451405Y-51907509D01*
X111542233Y-51816681D01*
X111604545Y-51782655D01*
X111658383Y-51782715D01*
X111661612Y-51783425D01*
X111667466Y-51785327D01*
X111872809Y-51809813D01*
X111878944Y-51809341D01*
X111878946Y-51809341D01*
X112072856Y-51794420D01*
X112072860Y-51794419D01*
X112078998Y-51793947D01*
X112278178Y-51738335D01*
X112283682Y-51735555D01*
X112283684Y-51735554D01*
X112457262Y-51647874D01*
X112457264Y-51647873D01*
X112462763Y-51645095D01*
X112625722Y-51517777D01*
X112629748Y-51513113D01*
X112629751Y-51513110D01*
X112756819Y-51365900D01*
X112756820Y-51365898D01*
X112760848Y-51361232D01*
X112862995Y-51181422D01*
X112907189Y-51048570D01*
X112926325Y-50991044D01*
X112926326Y-50991041D01*
X112928270Y-50985196D01*
X112954189Y-50780029D01*
X112954602Y-50750443D01*
X112934422Y-50544632D01*
X112874651Y-50346660D01*
X112777565Y-50164068D01*
X112773674Y-50159298D01*
X112773672Y-50159294D01*
X112650758Y-50008586D01*
X112650755Y-50008583D01*
X112646863Y-50003811D01*
X112642114Y-49999882D01*
X112492271Y-49875921D01*
X112492266Y-49875918D01*
X112487522Y-49871993D01*
X112482103Y-49869063D01*
X112482100Y-49869061D01*
X112311032Y-49776565D01*
X112311027Y-49776563D01*
X112305612Y-49773635D01*
X112108063Y-49712483D01*
X112101938Y-49711839D01*
X112101937Y-49711839D01*
X111908526Y-49691511D01*
X111908524Y-49691511D01*
X111902397Y-49690867D01*
X111776229Y-49702349D01*
X111702591Y-49709050D01*
X111702590Y-49709050D01*
X111696450Y-49709609D01*
X111498066Y-49767997D01*
X111492601Y-49770854D01*
X111320261Y-49860951D01*
X111320257Y-49860954D01*
X111314801Y-49863806D01*
X111153635Y-49993386D01*
X111020708Y-50151803D01*
X110921082Y-50333021D01*
X110858553Y-50530139D01*
X110835501Y-50735649D01*
X110852806Y-50941721D01*
X110854506Y-50947649D01*
X110862977Y-50977191D01*
X110862528Y-51048186D01*
X110830954Y-51101018D01*
X110612562Y-51319410D01*
X110550250Y-51353436D01*
X110479435Y-51348371D01*
X110428013Y-51312561D01*
X110410917Y-51292719D01*
X110410913Y-51292716D01*
X110405055Y-51285917D01*
X110397521Y-51281034D01*
X110390948Y-51275300D01*
X110379544Y-51266073D01*
X110216206Y-51102735D01*
X110182180Y-51040423D01*
X110182425Y-50987294D01*
X110183270Y-50984753D01*
X110184226Y-50977191D01*
X110208746Y-50783090D01*
X110209189Y-50779586D01*
X110209602Y-50750000D01*
X110189422Y-50544189D01*
X110129651Y-50346217D01*
X110081108Y-50254921D01*
X110035459Y-50169067D01*
X110035457Y-50169064D01*
X110032565Y-50163625D01*
X110028674Y-50158855D01*
X110028672Y-50158851D01*
X109905758Y-50008143D01*
X109905755Y-50008140D01*
X109901863Y-50003368D01*
X109889797Y-49993386D01*
X109747271Y-49875478D01*
X109747266Y-49875475D01*
X109742522Y-49871550D01*
X109737103Y-49868620D01*
X109737100Y-49868618D01*
X109566032Y-49776122D01*
X109566027Y-49776120D01*
X109560612Y-49773192D01*
X109363063Y-49712040D01*
X109356938Y-49711396D01*
X109356937Y-49711396D01*
X109163526Y-49691068D01*
X109163524Y-49691068D01*
X109157397Y-49690424D01*
X109031229Y-49701906D01*
X108957591Y-49708607D01*
X108957590Y-49708607D01*
X108951450Y-49709166D01*
X108753066Y-49767554D01*
X108747601Y-49770411D01*
X108575261Y-49860508D01*
X108575257Y-49860511D01*
X108569801Y-49863363D01*
X108408635Y-49992943D01*
X108275708Y-50151360D01*
X108176082Y-50332578D01*
X108113553Y-50529696D01*
X108112867Y-50535813D01*
X108112866Y-50535817D01*
X108091188Y-50729081D01*
X108090501Y-50735206D01*
X108107806Y-50941278D01*
X108164807Y-51140066D01*
X108167625Y-51145548D01*
X108167626Y-51145552D01*
X108256514Y-51318509D01*
X108256517Y-51318513D01*
X108259334Y-51323995D01*
X108387786Y-51486061D01*
X108392479Y-51490055D01*
X108392480Y-51490056D01*
X108419569Y-51513110D01*
X108545271Y-51620091D01*
X108725789Y-51720980D01*
X108922466Y-51784884D01*
X109127809Y-51809370D01*
X109133944Y-51808898D01*
X109133946Y-51808898D01*
X109327857Y-51793977D01*
X109327862Y-51793976D01*
X109333998Y-51793504D01*
X109339933Y-51791847D01*
X109377245Y-51781430D01*
X109448236Y-51782377D01*
X109500223Y-51813694D01*
X109528594Y-51842065D01*
X109562620Y-51904377D01*
X109565499Y-51931160D01*
X109565499Y-58156000D01*
X109545497Y-58224121D01*
X109491841Y-58270614D01*
X109439499Y-58282000D01*
X108857115Y-58282000D01*
X108841876Y-58286475D01*
X108840671Y-58287865D01*
X108839000Y-58295548D01*
X108839000Y-61079884D01*
X108843475Y-61095123D01*
X108844865Y-61096328D01*
X108852548Y-61097999D01*
X109439499Y-61097999D01*
X109507620Y-61118001D01*
X109554113Y-61171657D01*
X109565499Y-61223999D01*
X109565499Y-94773840D01*
X109545497Y-94841961D01*
X109528594Y-94862935D01*
X108913206Y-95478323D01*
X108903766Y-95485865D01*
X108904089Y-95486245D01*
X108897253Y-95492063D01*
X108889661Y-95496853D01*
X108883719Y-95503581D01*
X108854329Y-95536859D01*
X108848983Y-95542546D01*
X108837649Y-95553880D01*
X108834964Y-95557463D01*
X108834962Y-95557465D01*
X108831447Y-95562155D01*
X108825062Y-95569998D01*
X108793999Y-95605170D01*
X108790186Y-95613292D01*
X108788346Y-95616093D01*
X108779937Y-95630088D01*
X108778315Y-95633051D01*
X108772930Y-95640236D01*
X108769777Y-95648646D01*
X108769776Y-95648648D01*
X108756454Y-95684182D01*
X108752530Y-95693495D01*
X108732583Y-95735982D01*
X108731201Y-95744856D01*
X108730215Y-95748083D01*
X108726075Y-95763866D01*
X108725354Y-95767144D01*
X108722202Y-95775552D01*
X108721537Y-95784503D01*
X108718724Y-95822357D01*
X108717570Y-95832404D01*
X108715500Y-95845697D01*
X108715500Y-95861062D01*
X108715154Y-95870399D01*
X108711493Y-95919667D01*
X108713366Y-95928442D01*
X108713959Y-95937138D01*
X108715500Y-95951738D01*
X108715500Y-97368214D01*
X108695498Y-97436335D01*
X108653923Y-97476499D01*
X108572978Y-97524656D01*
X108572975Y-97524658D01*
X108568010Y-97527612D01*
X108563670Y-97531418D01*
X108563666Y-97531421D01*
X108461005Y-97621453D01*
X108415392Y-97661455D01*
X108289720Y-97820869D01*
X108287031Y-97825980D01*
X108287029Y-97825983D01*
X108274601Y-97849605D01*
X108195203Y-98000515D01*
X108135007Y-98194378D01*
X108111148Y-98395964D01*
X108124424Y-98598522D01*
X108125845Y-98604118D01*
X108125846Y-98604123D01*
X108167738Y-98769069D01*
X108174392Y-98795269D01*
X108176809Y-98800512D01*
X108214010Y-98881208D01*
X108259377Y-98979616D01*
X108376533Y-99145389D01*
X108521938Y-99287035D01*
X108526742Y-99290245D01*
X108580980Y-99326486D01*
X108690720Y-99399812D01*
X108696023Y-99402090D01*
X108696026Y-99402092D01*
X108784707Y-99440192D01*
X108877228Y-99479942D01*
X108950877Y-99496607D01*
X109012903Y-99531150D01*
X109046408Y-99593743D01*
X109040754Y-99664514D01*
X108997735Y-99720994D01*
X108931011Y-99745249D01*
X108923069Y-99745500D01*
X102537476Y-99745500D01*
X102512897Y-99743079D01*
X102500000Y-99740514D01*
X102487828Y-99742935D01*
X102475420Y-99742935D01*
X102475420Y-99742615D01*
X102464544Y-99743355D01*
X102236943Y-99729588D01*
X102221839Y-99727754D01*
X101970115Y-99681624D01*
X101955342Y-99677983D01*
X101887838Y-99656948D01*
X101711004Y-99601844D01*
X101696786Y-99596451D01*
X101463414Y-99491420D01*
X101449943Y-99484350D01*
X101444761Y-99481217D01*
X101394435Y-99450794D01*
X101230931Y-99351951D01*
X101218410Y-99343308D01*
X101016957Y-99185481D01*
X101005568Y-99175391D01*
X100824609Y-98994432D01*
X100814519Y-98983043D01*
X100794736Y-98957791D01*
X100671516Y-98800512D01*
X100656692Y-98781590D01*
X100648049Y-98769069D01*
X100515650Y-98550057D01*
X100508579Y-98536584D01*
X100484487Y-98483053D01*
X100403549Y-98303214D01*
X100398154Y-98288991D01*
X100368672Y-98194378D01*
X100322017Y-98044658D01*
X100318376Y-98029885D01*
X100272246Y-97778161D01*
X100270412Y-97763057D01*
X100256645Y-97535456D01*
X100257385Y-97524580D01*
X100257065Y-97524580D01*
X100257065Y-97512172D01*
X100259486Y-97500000D01*
X100256921Y-97487103D01*
X100254500Y-97462524D01*
X100254500Y-94253751D01*
X100274502Y-94185630D01*
X100328158Y-94139137D01*
X100398432Y-94129033D01*
X100463012Y-94158527D01*
X100501396Y-94218253D01*
X100504450Y-94231114D01*
X100553516Y-94499772D01*
X100643353Y-94769048D01*
X100679786Y-94841961D01*
X100728954Y-94940361D01*
X100770236Y-95022980D01*
X100931631Y-95256500D01*
X101124320Y-95464950D01*
X101127774Y-95467762D01*
X101341001Y-95641356D01*
X101341005Y-95641359D01*
X101344458Y-95644170D01*
X101587652Y-95790585D01*
X101591747Y-95792319D01*
X101591749Y-95792320D01*
X101776140Y-95870399D01*
X101849049Y-95901272D01*
X101853342Y-95902410D01*
X101853347Y-95902412D01*
X101996898Y-95940473D01*
X102123435Y-95974024D01*
X102405334Y-96007389D01*
X102689122Y-96000701D01*
X102693517Y-95999969D01*
X102693522Y-95999969D01*
X102964734Y-95954827D01*
X102964738Y-95954826D01*
X102969136Y-95954094D01*
X103233776Y-95870399D01*
X103235544Y-95869840D01*
X103235546Y-95869839D01*
X103239790Y-95868497D01*
X103243801Y-95866571D01*
X103243806Y-95866569D01*
X103491665Y-95747549D01*
X103491666Y-95747548D01*
X103495684Y-95745619D01*
X103651724Y-95641356D01*
X103728002Y-95590389D01*
X103728006Y-95590386D01*
X103731710Y-95587911D01*
X103735027Y-95584940D01*
X103735031Y-95584937D01*
X103939845Y-95401490D01*
X103943161Y-95398520D01*
X104125817Y-95181225D01*
X104128174Y-95177446D01*
X104273669Y-94944152D01*
X104273671Y-94944149D01*
X104276033Y-94940361D01*
X104390813Y-94680734D01*
X104467866Y-94407525D01*
X104493288Y-94218253D01*
X104505227Y-94129367D01*
X104505228Y-94129359D01*
X104505654Y-94126185D01*
X104509620Y-94000000D01*
X104489571Y-93716842D01*
X104429825Y-93439334D01*
X104331574Y-93173013D01*
X104196778Y-92923192D01*
X104028127Y-92694856D01*
X103828986Y-92492562D01*
X103755118Y-92436188D01*
X103606872Y-92323050D01*
X103606868Y-92323047D01*
X103603327Y-92320345D01*
X103355655Y-92181641D01*
X103351506Y-92180036D01*
X103351502Y-92180034D01*
X103191830Y-92118262D01*
X103090909Y-92079219D01*
X103086588Y-92078217D01*
X103086580Y-92078215D01*
X102904110Y-92035922D01*
X102814374Y-92015122D01*
X102709398Y-92006030D01*
X102643257Y-91980225D01*
X102601567Y-91922757D01*
X102597565Y-91851874D01*
X102632520Y-91790079D01*
X102695336Y-91756992D01*
X102720270Y-91754500D01*
X107212524Y-91754500D01*
X107237103Y-91756921D01*
X107250000Y-91759486D01*
X107260312Y-91757435D01*
X107264541Y-91757065D01*
X107265552Y-91757065D01*
X107267150Y-91756837D01*
X107425096Y-91743018D01*
X107430409Y-91741594D01*
X107430411Y-91741594D01*
X107589562Y-91698950D01*
X107589564Y-91698949D01*
X107594872Y-91697527D01*
X107666721Y-91664023D01*
X107749188Y-91625568D01*
X107749191Y-91625566D01*
X107754169Y-91623245D01*
X107898147Y-91522431D01*
X108022431Y-91398147D01*
X108123245Y-91254169D01*
X108127288Y-91245500D01*
X108195204Y-91099854D01*
X108195205Y-91099852D01*
X108197527Y-91094872D01*
X108243018Y-90925096D01*
X108256837Y-90767150D01*
X108257065Y-90765552D01*
X108257065Y-90764541D01*
X108257435Y-90760312D01*
X108259486Y-90750000D01*
X108256921Y-90737103D01*
X108254500Y-90712524D01*
X108254500Y-63427476D01*
X108256921Y-63402894D01*
X108257065Y-63402170D01*
X108259486Y-63390000D01*
X108257435Y-63379688D01*
X108257065Y-63375459D01*
X108257065Y-63374448D01*
X108256836Y-63372845D01*
X108243018Y-63214904D01*
X108197527Y-63045128D01*
X108123245Y-62885832D01*
X108119520Y-62880511D01*
X108025584Y-62746356D01*
X108022431Y-62741853D01*
X107898147Y-62617569D01*
X107754169Y-62516755D01*
X107749191Y-62514434D01*
X107749188Y-62514432D01*
X107599854Y-62444796D01*
X107599852Y-62444795D01*
X107594872Y-62442473D01*
X107589564Y-62441051D01*
X107589562Y-62441050D01*
X107430411Y-62398406D01*
X107430409Y-62398406D01*
X107425096Y-62396982D01*
X107267150Y-62383163D01*
X107265552Y-62382935D01*
X107264541Y-62382935D01*
X107260312Y-62382565D01*
X107250000Y-62380514D01*
X107237103Y-62383079D01*
X107212524Y-62385500D01*
X104367476Y-62385500D01*
X104342897Y-62383079D01*
X104330000Y-62380514D01*
X104317829Y-62382935D01*
X104305419Y-62382935D01*
X104305419Y-62382581D01*
X104294555Y-62383314D01*
X104061806Y-62368958D01*
X104046426Y-62367054D01*
X103789927Y-62319106D01*
X103774890Y-62315324D01*
X103526238Y-62236222D01*
X103511773Y-62230618D01*
X103274726Y-62121560D01*
X103261058Y-62114220D01*
X103039213Y-61976859D01*
X103026552Y-61967896D01*
X102823274Y-61804320D01*
X102811809Y-61793869D01*
X102805790Y-61787661D01*
X102630165Y-61606541D01*
X102620072Y-61594760D01*
X102462829Y-61386537D01*
X102454260Y-61373605D01*
X102323797Y-61147637D01*
X102316882Y-61133750D01*
X102215177Y-60893461D01*
X102210021Y-60878830D01*
X102138614Y-60627862D01*
X102135295Y-60612707D01*
X102095271Y-60354865D01*
X102093840Y-60339418D01*
X102085805Y-60078624D01*
X102086282Y-60063119D01*
X102110357Y-59803296D01*
X102112737Y-59787966D01*
X102168558Y-59533078D01*
X102172804Y-59518156D01*
X102184678Y-59484462D01*
X102259523Y-59272068D01*
X102265569Y-59257785D01*
X102369515Y-59049034D01*
X102375579Y-59039996D01*
X102375272Y-59039819D01*
X102381477Y-59029071D01*
X102389657Y-59019743D01*
X102393646Y-59007992D01*
X102393647Y-59007991D01*
X102394080Y-59006716D01*
X102404074Y-58984567D01*
X103349919Y-57334320D01*
X104280501Y-57334320D01*
X104297806Y-57540392D01*
X104354807Y-57739180D01*
X104357625Y-57744662D01*
X104357626Y-57744666D01*
X104446514Y-57917623D01*
X104446517Y-57917627D01*
X104449334Y-57923109D01*
X104577786Y-58085175D01*
X104582479Y-58089169D01*
X104582480Y-58089170D01*
X104648405Y-58145276D01*
X104735271Y-58219205D01*
X104915789Y-58320094D01*
X105112466Y-58383998D01*
X105317809Y-58408484D01*
X105323944Y-58408012D01*
X105323947Y-58408012D01*
X105404834Y-58401788D01*
X105474288Y-58416505D01*
X105524760Y-58466436D01*
X105540500Y-58527417D01*
X105540500Y-58575031D01*
X105520498Y-58643152D01*
X105478923Y-58683316D01*
X105363495Y-58751988D01*
X105359155Y-58755794D01*
X105359151Y-58755797D01*
X105208309Y-58888083D01*
X105203968Y-58891890D01*
X105200393Y-58896425D01*
X105200392Y-58896426D01*
X105087350Y-59039819D01*
X105072607Y-59058520D01*
X104973812Y-59246299D01*
X104910891Y-59448938D01*
X104885951Y-59659649D01*
X104899829Y-59871377D01*
X104952058Y-60077031D01*
X105040890Y-60269723D01*
X105163350Y-60443000D01*
X105315337Y-60591059D01*
X105320133Y-60594264D01*
X105320136Y-60594266D01*
X105462186Y-60689180D01*
X105491760Y-60708941D01*
X105497063Y-60711219D01*
X105497066Y-60711221D01*
X105578908Y-60746383D01*
X105686711Y-60792699D01*
X105762750Y-60809905D01*
X105888025Y-60838252D01*
X105888030Y-60838253D01*
X105893662Y-60839527D01*
X105899433Y-60839754D01*
X105899435Y-60839754D01*
X105964911Y-60842326D01*
X106105681Y-60847857D01*
X106210674Y-60832634D01*
X106309953Y-60818239D01*
X106309958Y-60818238D01*
X106315667Y-60817410D01*
X106321131Y-60815555D01*
X106321136Y-60815554D01*
X106414240Y-60783949D01*
X106516589Y-60749207D01*
X106590873Y-60707606D01*
X106696670Y-60648357D01*
X106696674Y-60648354D01*
X106701717Y-60645530D01*
X106864852Y-60509852D01*
X106954128Y-60402509D01*
X107013065Y-60362927D01*
X107084047Y-60361491D01*
X107144537Y-60398658D01*
X107175330Y-60462629D01*
X107177001Y-60483080D01*
X107177001Y-60634669D01*
X107177371Y-60641490D01*
X107182895Y-60692352D01*
X107186521Y-60707604D01*
X107231676Y-60828054D01*
X107240214Y-60843649D01*
X107316715Y-60945724D01*
X107329276Y-60958285D01*
X107431351Y-61034786D01*
X107446946Y-61043324D01*
X107567394Y-61088478D01*
X107582649Y-61092105D01*
X107633514Y-61097631D01*
X107640328Y-61098000D01*
X108312885Y-61098000D01*
X108328124Y-61093525D01*
X108329329Y-61092135D01*
X108331000Y-61084452D01*
X108331000Y-58300116D01*
X108326525Y-58284877D01*
X108325135Y-58283672D01*
X108317452Y-58282001D01*
X107640331Y-58282001D01*
X107633510Y-58282371D01*
X107582648Y-58287895D01*
X107567396Y-58291521D01*
X107446946Y-58336676D01*
X107431351Y-58345214D01*
X107329276Y-58421715D01*
X107316715Y-58434276D01*
X107240214Y-58536351D01*
X107231676Y-58551946D01*
X107186522Y-58672394D01*
X107182895Y-58687649D01*
X107177369Y-58738514D01*
X107177000Y-58745328D01*
X107177000Y-58896918D01*
X107156998Y-58965039D01*
X107103342Y-59011532D01*
X107033068Y-59021636D01*
X106968488Y-58992142D01*
X106950042Y-58972307D01*
X106910089Y-58918803D01*
X106910088Y-58918802D01*
X106906636Y-58914179D01*
X106902400Y-58910263D01*
X106755066Y-58774069D01*
X106755063Y-58774067D01*
X106750826Y-58770150D01*
X106608264Y-58680200D01*
X106561326Y-58626934D01*
X106549500Y-58573639D01*
X106549500Y-58124744D01*
X106550842Y-58112736D01*
X106550346Y-58112696D01*
X106551066Y-58103745D01*
X106553047Y-58094991D01*
X106549742Y-58041721D01*
X106549500Y-58033919D01*
X106549500Y-58017888D01*
X106548035Y-58007655D01*
X106547004Y-57997595D01*
X106545326Y-57970539D01*
X106544098Y-57950756D01*
X106541050Y-57942313D01*
X106540371Y-57939034D01*
X106536416Y-57923169D01*
X106535473Y-57919945D01*
X106534201Y-57911062D01*
X106530487Y-57902893D01*
X106530485Y-57902887D01*
X106514775Y-57868335D01*
X106510961Y-57858966D01*
X106498077Y-57823277D01*
X106495028Y-57814830D01*
X106489731Y-57807580D01*
X106488154Y-57804613D01*
X106479907Y-57790500D01*
X106478102Y-57787677D01*
X106474388Y-57779509D01*
X106443753Y-57743956D01*
X106437475Y-57736050D01*
X106429527Y-57725170D01*
X106418665Y-57714308D01*
X106412306Y-57707459D01*
X106400207Y-57693417D01*
X106370894Y-57628754D01*
X106372693Y-57585600D01*
X106373270Y-57583867D01*
X106374226Y-57576305D01*
X106398746Y-57382204D01*
X106399189Y-57378700D01*
X106399602Y-57349114D01*
X106379422Y-57143303D01*
X106319651Y-56945331D01*
X106271108Y-56854035D01*
X106225459Y-56768181D01*
X106225457Y-56768178D01*
X106222565Y-56762739D01*
X106218674Y-56757969D01*
X106218672Y-56757965D01*
X106095758Y-56607257D01*
X106095755Y-56607254D01*
X106091863Y-56602482D01*
X106079797Y-56592500D01*
X105937271Y-56474592D01*
X105937266Y-56474589D01*
X105932522Y-56470664D01*
X105927103Y-56467734D01*
X105927100Y-56467732D01*
X105756032Y-56375236D01*
X105756027Y-56375234D01*
X105750612Y-56372306D01*
X105553063Y-56311154D01*
X105546938Y-56310510D01*
X105546937Y-56310510D01*
X105353526Y-56290182D01*
X105353524Y-56290182D01*
X105347397Y-56289538D01*
X105221229Y-56301020D01*
X105147591Y-56307721D01*
X105147590Y-56307721D01*
X105141450Y-56308280D01*
X104943066Y-56366668D01*
X104937601Y-56369525D01*
X104765261Y-56459622D01*
X104765257Y-56459625D01*
X104759801Y-56462477D01*
X104598635Y-56592057D01*
X104465708Y-56750474D01*
X104366082Y-56931692D01*
X104303553Y-57128810D01*
X104302867Y-57134927D01*
X104302866Y-57134931D01*
X104281188Y-57328195D01*
X104280501Y-57334320D01*
X103349919Y-57334320D01*
X108516741Y-48319591D01*
X108531324Y-48299172D01*
X108531410Y-48299074D01*
X108539593Y-48289743D01*
X108543582Y-48277991D01*
X108549787Y-48267244D01*
X108550094Y-48267421D01*
X108554888Y-48257654D01*
X108683696Y-48063263D01*
X108693041Y-48050888D01*
X108862812Y-47852730D01*
X108873603Y-47841601D01*
X109066442Y-47665805D01*
X109078519Y-47656087D01*
X109291485Y-47505331D01*
X109304675Y-47497164D01*
X109534561Y-47373718D01*
X109548655Y-47367234D01*
X109791966Y-47272975D01*
X109806749Y-47268273D01*
X110059793Y-47204630D01*
X110075029Y-47201781D01*
X110333988Y-47169715D01*
X110349473Y-47168760D01*
X110610399Y-47168760D01*
X110625884Y-47169715D01*
G37*
G04 #@! TD.AperFunction*
M02*
