G04 #@! TF.GenerationSoftware,KiCad,Pcbnew,6.0.5-a6ca702e91~116~ubuntu20.04.1*
G04 #@! TF.CreationDate,2022-06-20T08:25:11+02:00*
G04 #@! TF.ProjectId,traffic_lights_train,74726166-6669-4635-9f6c-69676874735f,1.0*
G04 #@! TF.SameCoordinates,Original*
G04 #@! TF.FileFunction,Legend,Top*
G04 #@! TF.FilePolarity,Positive*
%FSLAX46Y46*%
G04 Gerber Fmt 4.6, Leading zero omitted, Abs format (unit mm)*
G04 Created by KiCad (PCBNEW 6.0.5-a6ca702e91~116~ubuntu20.04.1) date 2022-06-20 08:25:11*
%MOMM*%
%LPD*%
G01*
G04 APERTURE LIST*
G04 Aperture macros list*
%AMRoundRect*
0 Rectangle with rounded corners*
0 $1 Rounding radius*
0 $2 $3 $4 $5 $6 $7 $8 $9 X,Y pos of 4 corners*
0 Add a 4 corners polygon primitive as box body*
4,1,4,$2,$3,$4,$5,$6,$7,$8,$9,$2,$3,0*
0 Add four circle primitives for the rounded corners*
1,1,$1+$1,$2,$3*
1,1,$1+$1,$4,$5*
1,1,$1+$1,$6,$7*
1,1,$1+$1,$8,$9*
0 Add four rect primitives between the rounded corners*
20,1,$1+$1,$2,$3,$4,$5,0*
20,1,$1+$1,$4,$5,$6,$7,0*
20,1,$1+$1,$6,$7,$8,$9,0*
20,1,$1+$1,$8,$9,$2,$3,0*%
%AMHorizOval*
0 Thick line with rounded ends*
0 $1 width*
0 $2 $3 position (X,Y) of the first rounded end (center of the circle)*
0 $4 $5 position (X,Y) of the second rounded end (center of the circle)*
0 Add line between two ends*
20,1,$1,$2,$3,$4,$5,0*
0 Add two circle primitives to create the rounded ends*
1,1,$1,$2,$3*
1,1,$1,$4,$5*%
G04 Aperture macros list end*
%ADD10C,0.300000*%
%ADD11C,0.200000*%
%ADD12C,0.150000*%
%ADD13C,0.120000*%
%ADD14RoundRect,0.051000X0.900000X0.900000X-0.900000X0.900000X-0.900000X-0.900000X0.900000X-0.900000X0*%
%ADD15C,1.902000*%
%ADD16RoundRect,0.051000X-0.900000X-0.900000X0.900000X-0.900000X0.900000X0.900000X-0.900000X0.900000X0*%
%ADD17RoundRect,0.051000X-0.850000X0.850000X-0.850000X-0.850000X0.850000X-0.850000X0.850000X0.850000X0*%
%ADD18O,1.802000X1.802000*%
%ADD19C,1.702000*%
%ADD20HorizOval,1.702000X0.000000X0.000000X0.000000X0.000000X0*%
%ADD21HorizOval,1.702000X0.000000X0.000000X0.000000X0.000000X0*%
G04 APERTURE END LIST*
D10*
X112224285Y-95928571D02*
X111724285Y-95214285D01*
X111367142Y-95928571D02*
X111367142Y-94428571D01*
X111938571Y-94428571D01*
X112081428Y-94500000D01*
X112152857Y-94571428D01*
X112224285Y-94714285D01*
X112224285Y-94928571D01*
X112152857Y-95071428D01*
X112081428Y-95142857D01*
X111938571Y-95214285D01*
X111367142Y-95214285D01*
D11*
X114173095Y-94750000D02*
X114077857Y-94702380D01*
X113935000Y-94702380D01*
X113792142Y-94750000D01*
X113696904Y-94845238D01*
X113649285Y-94940476D01*
X113601666Y-95130952D01*
X113601666Y-95273809D01*
X113649285Y-95464285D01*
X113696904Y-95559523D01*
X113792142Y-95654761D01*
X113935000Y-95702380D01*
X114030238Y-95702380D01*
X114173095Y-95654761D01*
X114220714Y-95607142D01*
X114220714Y-95273809D01*
X114030238Y-95273809D01*
X114649285Y-95702380D02*
X114649285Y-94702380D01*
X115220714Y-95702380D01*
X115220714Y-94702380D01*
X115696904Y-95702380D02*
X115696904Y-94702380D01*
X115935000Y-94702380D01*
X116077857Y-94750000D01*
X116173095Y-94845238D01*
X116220714Y-94940476D01*
X116268333Y-95130952D01*
X116268333Y-95273809D01*
X116220714Y-95464285D01*
X116173095Y-95559523D01*
X116077857Y-95654761D01*
X115935000Y-95702380D01*
X115696904Y-95702380D01*
D10*
X109684285Y-95928571D02*
X109184285Y-95214285D01*
X108827142Y-95928571D02*
X108827142Y-94428571D01*
X109398571Y-94428571D01*
X109541428Y-94500000D01*
X109612857Y-94571428D01*
X109684285Y-94714285D01*
X109684285Y-94928571D01*
X109612857Y-95071428D01*
X109541428Y-95142857D01*
X109398571Y-95214285D01*
X108827142Y-95214285D01*
D12*
X116082380Y-98758333D02*
X116796666Y-98758333D01*
X116939523Y-98805952D01*
X117034761Y-98901190D01*
X117082380Y-99044047D01*
X117082380Y-99139285D01*
X117082380Y-97758333D02*
X117082380Y-98329761D01*
X117082380Y-98044047D02*
X116082380Y-98044047D01*
X116225238Y-98139285D01*
X116320476Y-98234523D01*
X116368095Y-98329761D01*
D13*
X108875000Y-58610000D02*
X108875000Y-58454000D01*
X108875000Y-60926000D02*
X108875000Y-60770000D01*
X108875000Y-58454484D02*
G75*
G03*
X105642665Y-58611392I-1560000J-1235516D01*
G01*
X106273870Y-60769837D02*
G75*
G03*
X108355961Y-60770000I1041130J1079837D01*
G01*
X105642665Y-60768608D02*
G75*
G03*
X108875000Y-60925516I1672335J1078608D01*
G01*
X108355961Y-58610000D02*
G75*
G03*
X106273870Y-58610163I-1040961J-1080000D01*
G01*
X112105000Y-58454000D02*
X112105000Y-58610000D01*
X112105000Y-60770000D02*
X112105000Y-60926000D01*
X112105000Y-60925516D02*
G75*
G03*
X115337335Y-60768608I1560000J1235516D01*
G01*
X114706130Y-58610163D02*
G75*
G03*
X112624039Y-58610000I-1041130J-1079837D01*
G01*
X115337335Y-58611392D02*
G75*
G03*
X112105000Y-58454484I-1672335J-1078608D01*
G01*
X112624039Y-60770000D02*
G75*
G03*
X114706130Y-60769837I1040961J1080000D01*
G01*
X113030000Y-97095000D02*
X113030000Y-99755000D01*
X113030000Y-99755000D02*
X107890000Y-99755000D01*
X114300000Y-97095000D02*
X115630000Y-97095000D01*
X115630000Y-97095000D02*
X115630000Y-98425000D01*
X113030000Y-97095000D02*
X107890000Y-97095000D01*
X107890000Y-97095000D02*
X107890000Y-99755000D01*
%LPC*%
D14*
X108585000Y-59690000D03*
D15*
X106045000Y-59690000D03*
D16*
X112395000Y-59690000D03*
D15*
X114935000Y-59690000D03*
D17*
X114300000Y-98425000D03*
D18*
X111760000Y-98425000D03*
X109220000Y-98425000D03*
D19*
X109150000Y-50750000D03*
D20*
X105340000Y-57349114D03*
D19*
X115705000Y-57349557D03*
D21*
X111895000Y-50750443D03*
M02*
